<?xml version="1.0" encoding="UTF-8"?>
<svg width="32px" height="20px" viewBox="0 0 32 20" version="1.1" xmlns="http://www.w3.org/2000/svg" xmlns:xlink="http://www.w3.org/1999/xlink">
    <!-- Generator: Sketch 52.6 (67491) - http://www.bohemiancoding.com/sketch -->
    <title>preferred-plus</title>
    <desc>Created with Sketch.</desc>
    <g id="preferred-plus" stroke="none" stroke-width="1" fill="none" fill-rule="evenodd">
        <g id="Group-3-Copy" transform="translate(1.000000, 1.000000)" fill-rule="nonzero">
            <path d="M13.8394161,0 L15.3262774,0 C16.5361314,0 17.5182482,1.006875 17.5182482,2.25224999 L17.5182482,15.7477499 C17.5182482,16.9908749 16.5383212,17.9999999 15.3262774,17.9999999 L2.19197086,17.9999999 C1.61057954,18.0001492 1.0529588,17.7629072 0.641853039,17.340496 C0.230747282,16.9180848 -0.000145188555,16.3451295 6.84956222e-08,15.7477499 L6.84956222e-08,2.25224999 C6.84956222e-08,1.009125 0.979927072,0 2.19197086,0 L13.8394161,0 L27.1156292,1.16532035e-16 C28.1185877,-6.7708468e-17 28.4822847,0.104428813 28.8489514,0.300524292 C29.2156181,0.496619771 29.5033802,0.784381917 29.6994757,1.15104858 C29.8955712,1.51771525 30,1.88141227 30,2.88437085 L30,15.1156292 C30,16.1185877 29.8955712,16.4822847 29.6994757,16.8489514 C29.5033802,17.2156181 29.2156181,17.5033802 28.8489514,17.6994757 C28.4822847,17.8955712 28.1185877,18 27.1156292,18 L13.8394161,18 L13.8394161,0 Z" id="Combined-Shape" fill="#FEBB02"/>
            <path d="M7.02364964,14.49 L12.8180177,14.49 C14.5222436,14.49 14.5222436,13.1363011 14.5222436,13.1363011 C15.8856243,12.4594517 15.2039339,11.1057529 15.2039339,11.1057529 C16.2264695,10.0904787 15.2039339,9.07520459 15.2039339,9.07520459 C15.8856243,8.05993046 15.2039339,7.04465632 14.1813984,7.04465632 L9.75041106,7.04465632 L10.4321014,4.67568333 C11.1137918,2.64513505 9.06872071,1.96828563 8.38703035,4.33725862 L7.02364964,8.39835517 L7.02364964,14.49 Z M2.89635036,8.39270833 L2.89635036,14.49 L6.26335766,14.49 L6.26335766,8.39270833 L2.89635036,8.39270833 Z" id="Shape-Copy" fill="#FFFFFF"/>
            <path d="M24.0457421,7.5 L25.7845522,7.5 C26.1876063,7.5 26.3646247,7.54803725 26.5332914,7.63824117 C26.701958,7.72844509 26.8343286,7.86081568 26.9245325,8.02948235 C27.0147365,8.19814902 27.0627737,8.37516747 27.0627737,8.77822148 L27.0627737,9.22177852 C27.0627737,9.62483253 27.0147365,9.80185098 26.9245325,9.97051765 C26.8343286,10.1391843 26.701958,10.2715549 26.5332914,10.3617588 C26.3646247,10.4519627 26.1876063,10.5 25.7845522,10.5 L24.0457421,10.5 L24.0457421,12.2184871 C24.0457421,12.6254908 23.9977048,12.801851 23.9075009,12.9705177 C23.817297,13.1391843 23.6849264,13.2715549 23.5162597,13.3617588 C23.3475931,13.4519627 23.1712329,13.5 22.7642292,13.5 L22.3102233,13.5 C21.9032196,13.5 21.7268595,13.4519627 21.5581928,13.3617588 C21.3895261,13.2715549 21.2571556,13.1391843 21.1669516,12.9705177 C21.0767477,12.801851 21.0287105,12.6254908 21.0287105,12.2184871 L21.0287105,10.5 L19.2899003,10.5 C18.8868463,10.5 18.7098278,10.4519627 18.5411612,10.3617588 C18.3724945,10.2715549 18.2401239,10.1391843 18.14992,9.97051765 C18.0597161,9.80185098 18.0116788,9.62483253 18.0116788,9.22177852 L18.0116788,8.77822148 C18.0116788,8.37516747 18.0597161,8.19814902 18.14992,8.02948235 C18.2401239,7.86081568 18.3724945,7.72844509 18.5411612,7.63824117 C18.7098278,7.54803725 18.8868463,7.5 19.2899003,7.5 L21.0287105,7.5 L21.0287105,5.78151288 C21.0287105,5.37450918 21.0767477,5.19814902 21.1669516,5.02948235 C21.2571556,4.86081568 21.3895261,4.72844509 21.5581928,4.63824117 C21.7268595,4.54803725 21.9032196,4.5 22.3102233,4.5 L22.7642292,4.5 C23.1712329,4.5 23.3475931,4.54803725 23.5162597,4.63824117 C23.6849264,4.72844509 23.817297,4.86081568 23.9075009,5.02948235 C23.9977048,5.19814902 24.0457421,5.37450918 24.0457421,5.78151288 L24.0457421,7.5 Z" id="Combined-Shape-Copy" fill="#FFFFFF"/>
        </g>
    </g>
</svg>