<?xml version="1.0" encoding="UTF-8"?>
<svg width="39px" height="40px" viewBox="0 0 39 40" version="1.1" xmlns="http://www.w3.org/2000/svg" xmlns:xlink="http://www.w3.org/1999/xlink">
    <!-- Generator: Sketch 45.2 (43514) - http://www.bohemiancoding.com/sketch -->
    <title>ICON</title>
    <desc>Created with Sketch.</desc>
    <defs></defs>
    <g id="Landing" stroke="none" stroke-width="1" fill="none" fill-rule="evenodd">
        <g id="Landing-page-Final" transform="translate(-740.000000, -3069.000000)">
            <g id="Data" transform="translate(0.000000, 2991.000000)">
                <g id="Group-4" transform="translate(720.000000, 58.000000)">
                    <g id="ICON" transform="translate(21.000000, 21.000000)">
                        <polyline id="Stroke-1" stroke="#488BF8" stroke-width="2" stroke-linecap="round" stroke-linejoin="round" points="0 0 0 37.4500008 37.0338896 37.4500008"></polyline>
                        <polyline id="Stroke-3" stroke="#488BF8" stroke-width="1.9" stroke-linecap="round" stroke-linejoin="round" points="5.54290125 25.3773031 14.5548059 12.6265634 25.039295 18.4786188 34.2928945 5.29720406"></polyline>
                        <g id="Group-20" transform="translate(2.923728, 1.971053)">
                            <path d="M5.05561322,23.4062505 C5.05561322,24.7672623 3.96506263,25.8700663 2.61917312,25.8700663 C1.2732836,25.8700663 0.182733008,24.7672623 0.182733008,23.4062505 C0.182733008,22.0452386 1.2732836,20.9424346 2.61917312,20.9424346 C3.96506263,20.9424346 5.05561322,22.0452386 5.05561322,23.4062505" id="Fill-4" fill="#FFFFFF"></path>
                            <path d="M5.05561322,23.4062505 C5.05561322,24.7672623 3.96506263,25.8700663 2.61917312,25.8700663 C1.2732836,25.8700663 0.182733008,24.7672623 0.182733008,23.4062505 C0.182733008,22.0452386 1.2732836,20.9424346 2.61917312,20.9424346 C3.96506263,20.9424346 5.05561322,22.0452386 5.05561322,23.4062505 Z" id="Stroke-6" stroke="#488BF8" stroke-width="1.765" stroke-linecap="round" stroke-linejoin="round"></path>
                            <path d="M14.1285264,10.7791943 C14.1285264,12.1402062 13.0379758,13.2430101 11.6920862,13.2430101 C10.3471713,13.2430101 9.25564614,12.1402062 9.25564614,10.7791943 C9.25564614,9.41818243 10.3471713,8.31537846 11.6920862,8.31537846 C13.0379758,8.31537846 14.1285264,9.41818243 14.1285264,10.7791943" id="Fill-8" fill="#FFFFFF"></path>
                            <path d="M14.1285264,10.7791943 C14.1285264,12.1402062 13.0379758,13.2430101 11.6920862,13.2430101 C10.3471713,13.2430101 9.25564614,12.1402062 9.25564614,10.7791943 C9.25564614,9.41818243 10.3471713,8.31537846 11.6920862,8.31537846 C13.0379758,8.31537846 14.1285264,9.41818243 14.1285264,10.7791943 Z" id="Stroke-10" stroke="#488BF8" stroke-width="1.765" stroke-linecap="round" stroke-linejoin="round"></path>
                            <path d="M24.6128205,16.3227799 C24.6128205,17.6837918 23.5222699,18.7865958 22.1763804,18.7865958 C20.8304909,18.7865958 19.7399403,17.6837918 19.7399403,16.3227799 C19.7399403,14.9617681 20.8304909,13.8589641 22.1763804,13.8589641 C23.5222699,13.8589641 24.6128205,14.9617681 24.6128205,16.3227799" id="Fill-12" fill="#FFFFFF"></path>
                            <path d="M24.6128205,16.3227799 C24.6128205,17.6837918 23.5222699,18.7865958 22.1763804,18.7865958 C20.8304909,18.7865958 19.7399403,17.6837918 19.7399403,16.3227799 C19.7399403,14.9617681 20.8304909,13.8589641 22.1763804,13.8589641 C23.5222699,13.8589641 24.6128205,14.9617681 24.6128205,16.3227799 Z" id="Stroke-14" stroke="#488BF8" stroke-width="1.765" stroke-linecap="round" stroke-linejoin="round"></path>
                            <path d="M33.8056065,3.32615138 C33.8056065,4.68716325 32.7150559,5.78996722 31.3691664,5.78996722 C30.0232769,5.78996722 28.9327263,4.68716325 28.9327263,3.32615138 C28.9327263,1.96513951 30.0232769,0.862335544 31.3691664,0.862335544 C32.7150559,0.862335544 33.8056065,1.96513951 33.8056065,3.32615138" id="Fill-16" fill="#FFFFFF"></path>
                            <path d="M33.8056065,3.32615138 C33.8056065,4.68716325 32.7150559,5.78996722 31.3691664,5.78996722 C30.0232769,5.78996722 28.9327263,4.68716325 28.9327263,3.32615138 C28.9327263,1.96513951 30.0232769,0.862335544 31.3691664,0.862335544 C32.7150559,0.862335544 33.8056065,1.96513951 33.8056065,3.32615138 Z" id="Stroke-18" stroke="#488BF8" stroke-width="1.765" stroke-linecap="round" stroke-linejoin="round"></path>
                        </g>
                    </g>
                </g>
            </g>
        </g>
    </g>
</svg>