<?xml version="1.0" encoding="UTF-8"?>
<svg width="40px" height="41px" viewBox="0 0 40 41" version="1.1" xmlns="http://www.w3.org/2000/svg" xmlns:xlink="http://www.w3.org/1999/xlink">
    <!-- Generator: Sketch 45.2 (43514) - http://www.bohemiancoding.com/sketch -->
    <title>ICON</title>
    <desc>Created with Sketch.</desc>
    <defs>
        <polygon id="path-1" points="7 0.202550562 7 6.96165169 0.3162 6.96165169 0.3162 0.202550562 7 0.202550562"></polygon>
    </defs>
    <g id="Landing" stroke="none" stroke-width="1" fill="none" fill-rule="evenodd">
        <g id="Landing-page-Final" transform="translate(-250.000000, -1857.000000)">
            <g id="Integration" transform="translate(0.000000, 1787.000000)">
                <g id="ICON" transform="translate(250.000000, 69.000000)">
                    <path d="M23.2471,24.5209551 L11.8751,5.57342697" id="Stroke-1" stroke="#488BF8" stroke-linecap="round" stroke-linejoin="round"></path>
                    <g id="Group-35" transform="translate(0.000000, 0.994854)">
                        <path d="M11.8701,8.12952809 C10.0651,8.12952809 8.5651,6.75829213 8.3821,4.93907865 C8.1841,2.9914382 9.5921,1.24503371 11.5171,1.04683146 C11.6401,1.03368539 11.7611,1.02761798 11.8801,1.02761798 C13.6841,1.02761798 15.1841,2.39885393 15.3681,4.21806742 C15.5651,6.16469663 14.1581,7.91110112 12.2321,8.11031461 C12.1101,8.12346067 11.9891,8.12952809 11.8701,8.12952809" id="Fill-2" fill="#FFFFFF"></path>
                        <path d="M11.8809,0.0163820225 C11.7279,0.0163820225 11.5719,0.0244719101 11.4159,0.0406516854 C8.9379,0.296494382 7.1339,2.53638202 7.3869,5.04222472 C7.6239,7.39132584 9.5839,9.14076404 11.8689,9.14076404 C12.0229,9.14076404 12.1779,9.13267416 12.3339,9.11649438 C14.8129,8.86065169 16.6159,6.62076404 16.3629,4.11492135 C16.1259,1.76582022 14.1659,0.0163820225 11.8809,0.0163820225 M11.8809,2.03885393 L11.8809,2.03885393 C13.1699,2.03885393 14.2419,3.01975281 14.3729,4.32020225 C14.4419,4.99469663 14.2459,5.65604494 13.8219,6.18188764 C13.3989,6.70773034 12.7979,7.03537079 12.1309,7.10413483 C12.0429,7.11424719 11.9559,7.11829213 11.8689,7.11829213 C10.5799,7.11829213 9.5079,6.13739326 9.3769,4.83694382 C9.3089,4.16244944 9.5039,3.50110112 9.9279,2.97525843 C10.3519,2.44941573 10.9519,2.12177528 11.6189,2.052 C11.7069,2.04289888 11.7949,2.03885393 11.8809,2.03885393" id="Fill-4" fill="#488BF8"></path>
                        <path d="M20.2129,24.4100225 L5.1749,24.4100225" id="Stroke-6" stroke="#488BF8" stroke-linecap="round" stroke-linejoin="round"></path>
                        <path d="M4.6875,28.1107416 C2.6545,28.1107416 0.9995,26.4381573 0.9995,24.3813034 C0.9995,22.3254607 2.6545,20.6528764 4.6875,20.6528764 C6.7205,20.6528764 8.3755,22.3254607 8.3755,24.3813034 C8.3755,26.4381573 6.7205,28.1107416 4.6875,28.1107416" id="Fill-8" fill="#FFFFFF"></path>
                        <path d="M4.6875,19.6416404 C2.0985,19.6416404 0.0005,21.7642247 0.0005,24.3813034 C0.0005,26.9993933 2.0985,29.1219775 4.6875,29.1219775 C7.2765,29.1219775 9.3745,26.9993933 9.3745,24.3813034 C9.3745,21.7642247 7.2765,19.6416404 4.6875,19.6416404 M4.6875,21.6641124 C6.1685,21.6641124 7.3755,22.8836629 7.3755,24.3813034 C7.3755,25.8799551 6.1685,27.0995056 4.6875,27.0995056 C3.2065,27.0995056 1.9995,25.8799551 1.9995,24.3813034 C1.9995,22.8836629 3.2065,21.6641124 4.6875,21.6641124" id="Fill-10" fill="#488BF8"></path>
                        <path d="M36.752,34.9297079 L22.515,24.301618" id="Stroke-12" stroke="#488BF8" stroke-linecap="round" stroke-linejoin="round"></path>
                        <path d="M36.6582,37.2983258 C35.3672,37.2983258 34.3162,36.2365281 34.3162,34.9300112 C34.3162,33.6245056 35.3672,32.5616966 36.6582,32.5616966 C37.9492,32.5616966 39.0002,33.6245056 39.0002,34.9300112 C39.0002,36.2365281 37.9492,37.2983258 36.6582,37.2983258" id="Fill-14" fill="#FFFFFF"></path>
                        <g id="Group-18" transform="translate(33.000000, 31.348315)">
                            <mask id="mask-2" fill="white">
                                <use xlink:href="#path-1"></use>
                            </mask>
                            <g id="Clip-17"></g>
                            <path d="M3.6582,0.202550562 C1.8122,0.202550562 0.3162,1.71535955 0.3162,3.58210112 C0.3162,5.44783146 1.8122,6.96165169 3.6582,6.96165169 C5.5042,6.96165169 7.0002,5.44783146 7.0002,3.58210112 C7.0002,1.71535955 5.5042,0.202550562 3.6582,0.202550562 M3.6582,2.22502247 C4.3982,2.22502247 5.0002,2.83378652 5.0002,3.58210112 C5.0002,4.33041573 4.3982,4.93917978 3.6582,4.93917978 C2.9182,4.93917978 2.3162,4.33041573 2.3162,3.58210112 C2.3162,2.83378652 2.9182,2.22502247 3.6582,2.22502247" id="Fill-16" fill="#488BF8" mask="url(#mask-2)"></path>
                        </g>
                        <path d="M35.9453,11.683618 L23.2473,23.5262022" id="Stroke-19" stroke="#488BF8" stroke-linecap="round" stroke-linejoin="round"></path>
                        <path d="M38.126,11.6752247 C38.126,13.0747753 37.004,14.209382 35.62,14.209382 C34.235,14.209382 33.113,13.0747753 33.113,11.6752247 C33.113,10.2756742 34.235,9.14106742 35.62,9.14106742 C37.004,9.14106742 38.126,10.2756742 38.126,11.6752247" id="Fill-21" fill="#FFFFFF"></path>
                        <path d="M38.126,11.6752247 C38.126,13.0747753 37.004,14.209382 35.62,14.209382 C34.235,14.209382 33.113,13.0747753 33.113,11.6752247 C33.113,10.2756742 34.235,9.14106742 35.62,9.14106742 C37.004,9.14106742 38.126,10.2756742 38.126,11.6752247 Z" id="Stroke-23" stroke="#488BF8" stroke-width="2"></path>
                        <path d="M11.875,36.9102135 L23.853,23.2261685" id="Stroke-25" stroke="#488BF8" stroke-linecap="round" stroke-linejoin="round"></path>
                        <path d="M14.3008,37.5180674 C13.9688,38.8731236 12.6138,39.6993034 11.2738,39.363573 C9.9338,39.0278427 9.1168,37.6566067 9.4488,36.3015506 C9.7808,34.9475056 11.1368,34.1213258 12.4768,34.4570562 C13.8168,34.7927865 14.6328,36.1630112 14.3008,37.5180674" id="Fill-27" fill="#FFFFFF"></path>
                        <path d="M14.3008,37.5180674 C13.9688,38.8731236 12.6138,39.6993034 11.2738,39.363573 C9.9338,39.0278427 9.1168,37.6566067 9.4488,36.3015506 C9.7808,34.9475056 11.1368,34.1213258 12.4768,34.4570562 C13.8168,34.7927865 14.6328,36.1630112 14.3008,37.5180674 Z" id="Stroke-29" stroke="#488BF8" stroke-width="2"></path>
                        <path d="M23.2471,30.6047528 C19.3881,30.6047528 16.2471,27.4294719 16.2471,23.5261011 C16.2471,19.6227303 19.3881,16.4474494 23.2471,16.4474494 C27.1061,16.4474494 30.2471,19.6227303 30.2471,23.5261011 C30.2471,27.4294719 27.1061,30.6047528 23.2471,30.6047528" id="Fill-31" fill="#FFFFFF"></path>
                        <path d="M23.2471,15.4362135 C18.8281,15.4362135 15.2471,19.0584607 15.2471,23.5261011 C15.2471,27.9937416 18.8281,31.6159888 23.2471,31.6159888 C27.6651,31.6159888 31.2461,27.9937416 31.2461,23.5261011 C31.2461,19.0584607 27.6651,15.4362135 23.2471,15.4362135 M23.2471,17.4586854 C26.5551,17.4586854 29.2461,20.1799213 29.2461,23.5261011 C29.2461,26.8722809 26.5551,29.5935169 23.2471,29.5935169 C19.9381,29.5935169 17.2471,26.8722809 17.2471,23.5261011 C17.2471,20.1799213 19.9381,17.4586854 23.2471,17.4586854" id="Fill-33" fill="#488BF8"></path>
                    </g>
                </g>
            </g>
        </g>
    </g>
</svg>