<?xml version="1.0" encoding="UTF-8"?>
<svg width="41px" height="42px" viewBox="0 0 41 42" version="1.1" xmlns="http://www.w3.org/2000/svg" xmlns:xlink="http://www.w3.org/1999/xlink">
    <!-- Generator: Sketch 45.2 (43514) - http://www.bohemiancoding.com/sketch -->
    <title>ICON</title>
    <desc>Created with Sketch.</desc>
    <defs></defs>
    <g id="Landing" stroke="none" stroke-width="1" fill="none" fill-rule="evenodd">
        <g id="Landing-page-Final" transform="translate(-740.000000, -2276.000000)">
            <g id="Multilingual" transform="translate(0.000000, 2197.000000)">
                <g id="ICON" transform="translate(740.000000, 79.000000)">
                    <path d="M1.00830769,12.0329818 C1.00420513,9.24611927 2.2534359,6.57438202 4.52523077,4.50938634 C6.99292308,2.26703544 10.3149744,1.02762316 13.8780513,1.01932584 C17.4411282,1.01310285 20.7683077,2.23695765 23.2431795,4.46893691 C25.5211282,6.5245981 26.7795897,9.19011236 26.7836923,11.9769749 C26.7888205,14.7648747 25.5395897,17.4376491 23.2667692,19.5026448 C20.7990769,21.7449957 17.4780513,22.984408 13.9139487,22.9916681 C12.1795897,22.9958168 9.37241026,22.3973725 9.37241026,22.3973725 L3.48420513,24.6075713 L4.54984615,19.542057 C2.27087179,17.487433 1.0134359,14.8208816 1.00830769,12.0329818" id="Fill-1" fill="#FFFFFF"></path>
                    <path d="M1.00830769,12.0329818 C1.00420513,9.24611927 2.2534359,6.57438202 4.52523077,4.50938634 C6.99292308,2.26703544 10.3149744,1.02762316 13.8780513,1.01932584 C17.4411282,1.01310285 20.7683077,2.23695765 23.2431795,4.46893691 C25.5211282,6.5245981 26.7795897,9.19011236 26.7836923,11.9769749 C26.7888205,14.7648747 25.5395897,17.4376491 23.2667692,19.5026448 C20.7990769,21.7449957 17.4780513,22.984408 13.9139487,22.9916681 C12.1795897,22.9958168 9.37241026,22.3973725 9.37241026,22.3973725 L3.48420513,24.6075713 L4.54984615,19.542057 C2.27087179,17.487433 1.0134359,14.8208816 1.00830769,12.0329818 Z" id="Stroke-3" stroke="#488BF8" stroke-width="1.966" stroke-linejoin="round"></path>
                    <path d="M13.9130256,22.3970614 C10.5427692,22.4043215 7.39610256,21.2458081 5.05558974,19.13414 C2.90071795,17.1904927 1.71097436,14.6691443 1.70687179,12.0316335 C1.70276923,9.39619706 2.88328205,6.86862576 5.03302564,4.91564391 C7.36635897,2.79464131 10.5089231,1.62160761 13.8791795,1.61434745 C17.2494359,1.60812446 20.3950769,2.76663786 22.737641,4.8772688 C24.8914872,6.82091616 26.0822564,9.34330164 26.0853333,11.9787381 C26.0904615,14.6162489 24.9089231,17.1438202 22.7602051,19.0957649 C20.4258462,21.2178047 17.2832821,22.3898012 13.9130256,22.3970614" id="Fill-5" fill="#FFFFFF"></path>
                    <path d="M39.9826667,27.8578392 C39.9867692,25.0709767 38.7375385,22.3992394 36.4657436,20.3342437 C33.9980513,18.0918928 30.676,16.8524806 27.1129231,16.8441832 C23.5498462,16.8379602 20.2226667,18.061815 17.7477949,20.2937943 C15.4698462,22.3494555 14.2113846,25.0149697 14.2072821,27.8018323 C14.2021538,30.5897321 15.4513846,33.2625065 17.7242051,35.3275022 C20.1918974,37.5698531 23.5129231,38.8092653 27.0770256,38.8165255 C28.8113846,38.8206742 31.6185641,38.2222299 31.6185641,38.2222299 L37.5067692,40.4324287 L36.4411282,35.3669144 C38.7201026,33.3122904 39.9775385,30.645739 39.9826667,27.8578392" id="Fill-7" fill="#FFFFFF"></path>
                    <path d="M39.9826667,27.8578392 C39.9867692,25.0709767 38.7375385,22.3992394 36.4657436,20.3342437 C33.9980513,18.0918928 30.676,16.8524806 27.1129231,16.8441832 C23.5498462,16.8379602 20.2226667,18.061815 17.7477949,20.2937943 C15.4698462,22.3494555 14.2113846,25.0149697 14.2072821,27.8018323 C14.2021538,30.5897321 15.4513846,33.2625065 17.7242051,35.3275022 C20.1918974,37.5698531 23.5129231,38.8092653 27.0770256,38.8165255 C28.8113846,38.8206742 31.6185641,38.2222299 31.6185641,38.2222299 L37.5067692,40.4324287 L36.4411282,35.3669144 C38.7201026,33.3122904 39.9775385,30.645739 39.9826667,27.8578392 Z" id="Stroke-9" stroke="#488BF8" stroke-width="1.966" stroke-linejoin="round"></path>
                    <path d="M27.0780513,38.2219188 C30.4483077,38.2291789 33.5949744,37.0706655 35.9354872,34.9589974 C38.090359,33.01535 39.2801026,30.4940017 39.2842051,27.8564909 C39.2883077,25.2210545 38.1077949,22.6934831 35.9580513,20.7405013 C33.6247179,18.6194987 30.4821538,17.446465 27.1118974,17.4392048 C23.741641,17.4329818 20.596,18.5914952 18.2534359,20.7021262 C16.0995897,22.6457736 14.9088205,25.168159 14.9057436,27.8035955 C14.9006154,30.4411063 16.0821538,32.9686776 18.2308718,34.9206223 C20.5652308,37.0426621 23.7077949,38.2146586 27.0780513,38.2219188" id="Fill-11" fill="#FFFFFF"></path>
                    <path d="M25.1810256,29.206465 L28.9071795,29.206465 L27.0271795,24.0019706 L25.1810256,29.206465 Z M30.1830769,32.7079343 L29.5882051,31.1252204 L24.5184615,31.1252204 L23.9215385,32.7421608 C23.6897436,33.3737943 23.4917949,33.799032 23.3266667,34.0199481 C23.1625641,34.2408643 22.8938462,34.3508038 22.5184615,34.3508038 C22.2015385,34.3508038 21.9205128,34.2336041 21.6764103,33.9981677 C21.4333333,33.7637684 21.3112821,33.4961798 21.3112821,33.1985134 C21.3112821,33.026344 21.3389744,32.8489888 21.3964103,32.6643734 C21.4517949,32.4818323 21.5461538,32.2266897 21.6764103,31.8989455 L24.8661538,23.7094901 C24.9574359,23.4750908 25.0671795,23.1919447 25.194359,22.8621262 C25.3225641,22.5323077 25.4589744,22.2584961 25.6025641,22.0406914 C25.7471795,21.8228868 25.9369231,21.6465687 26.1728205,21.5117373 C26.4076923,21.3769058 26.6979487,21.3094901 27.0435897,21.3094901 C27.3953846,21.3094901 27.6887179,21.3769058 27.925641,21.5117373 C28.1594872,21.6465687 28.3502564,21.8197753 28.4948718,22.0323941 C28.6394872,22.245013 28.7615385,22.4721521 28.8610256,22.7158859 C28.9605128,22.9606569 29.0866667,23.2852895 29.2394872,23.6928954 L32.4979487,31.8304927 C32.7523077,32.4496802 32.8805128,32.900847 32.8805128,33.1808816 C32.8805128,33.4733621 32.7594872,33.7419879 32.5184615,33.9846845 C32.2774359,34.2284183 31.9871795,34.3508038 31.6466667,34.3508038 C31.4476923,34.3508038 31.2774359,34.314503 31.1369231,34.2429386 C30.994359,34.1713742 30.8753846,34.0738807 30.7789744,33.9504581 C30.6825641,33.8280726 30.5789744,33.6382714 30.4682051,33.3831288 C30.3584615,33.1279862 30.2630769,32.9029213 30.1830769,32.7079343 L30.1830769,32.7079343 Z" id="Fill-13" fill="#488BF8"></path>
                    <path d="M14.8264615,11.2505445 C13.8264615,11.2505445 13.088,11.4299741 12.7044103,11.5824373 C12.7310769,12.7326534 12.8818462,13.7988591 13.1290256,14.6991184 C13.8264615,13.8268626 14.4705641,12.5936733 14.8264615,11.2505445 M11.7310769,12.026344 C10.2244103,12.8436301 9.42953846,14.1452723 9.42953846,15.2944512 C9.42953846,16.0567675 9.82748718,16.4311841 10.3895385,16.4311841 C10.8962051,16.4311841 11.5803077,16.1812273 12.3208205,15.5164045 C12.0049231,14.5466551 11.7997949,13.3010199 11.7310769,12.026344 M10.2521026,17.5108729 C9.18338462,17.5108729 8.38953846,16.7215903 8.38953846,15.3639412 C8.38953846,13.521936 9.75979487,11.8738807 11.6767179,11.015108 C11.662359,10.8211582 11.662359,10.6272083 11.662359,10.4197753 C11.662359,9.86592913 11.6767179,9.31104581 11.6900513,8.7706828 C10.9228718,8.78520311 10.073641,8.79868626 9.2654359,8.79868626 C8.90953846,8.78520311 8.74441026,8.59125324 8.74441026,8.25832325 C8.74441026,7.96791703 8.92287179,7.75944685 9.22441026,7.75944685 L9.93620513,7.75944685 C10.5259487,7.75944685 11.1290256,7.75944685 11.7444103,7.7459637 C11.7587692,7.26160761 11.7854359,6.7627312 11.8274872,6.33334486 C11.8551795,6.06990493 12.0459487,5.89047537 12.3474872,5.89047537 L12.4162051,5.89047537 C12.7454359,5.91744166 12.8818462,6.06990493 12.8818462,6.33334486 L12.8818462,6.40283492 C12.8397949,6.8042178 12.8131282,7.23360415 12.7864615,7.7044771 C14.5392821,7.63498704 16.2110769,7.51052723 17.7310769,7.27509075 L17.8264615,7.27509075 C18.1003077,7.27509075 18.2787692,7.44103717 18.3197949,7.73248055 L18.3197949,7.82893691 C18.3197949,8.10585998 18.1556923,8.28632671 17.8397949,8.32781331 C16.3197949,8.53524633 14.5803077,8.65970614 12.7044103,8.7291962 C12.6900513,9.24155575 12.6756923,9.75495246 12.6756923,10.2807952 L12.6756923,10.6552118 C13.2377436,10.5027485 14.0192821,10.3637684 15.0182564,10.3637684 C15.073641,10.1283319 15.1146667,9.92089888 15.142359,9.75495246 C15.1833846,9.53299914 15.3474872,9.40853933 15.593641,9.40853933 C15.6213333,9.40853933 15.662359,9.40853933 15.7033846,9.42202247 C15.9772308,9.45002593 16.1413333,9.61597234 16.1413333,9.85140882 L16.1413333,9.93438202 C16.1146667,10.1013656 16.073641,10.2807952 16.0326154,10.4612619 C18.2654359,10.807675 19.4018462,12.1642869 19.4018462,14.0208124 C19.4018462,16.2642005 17.4428718,18.0097494 14.4982564,18.120726 L14.4705641,18.120726 C14.142359,18.120726 13.9372308,17.8852895 13.9228718,17.5948833 L13.9228718,17.5668799 C13.9228718,17.2484702 14.128,17.0680035 14.4018462,17.0545203 C16.8408205,16.9300605 18.2510769,15.6408643 18.2510769,13.9658427 C18.2510769,12.5801901 17.4018462,11.5824373 15.7987692,11.3750043 C15.3474872,13.0925497 14.4438974,14.7820916 13.4982564,15.7798444 C13.5659487,15.9457908 13.6356923,16.1262576 13.7310769,16.3336906 C13.7721026,16.4166638 13.7997949,16.5141573 13.7997949,16.6106137 C13.7997949,16.8045635 13.7033846,16.9715471 13.4982564,17.0825238 C13.4018462,17.1240104 13.3064615,17.1509767 13.2244103,17.1509767 C13.0592821,17.1509767 12.9238974,17.0680035 12.8397949,16.9155402 C12.7864615,16.8045635 12.7310769,16.6666206 12.6756923,16.5421608 C11.7444103,17.2899568 10.9782564,17.5108729 10.2521026,17.5108729" id="Fill-15" fill="#488BF8"></path>
                    <path d="M14.8264615,11.2505445 C13.8264615,11.2505445 13.088,11.4299741 12.7044103,11.5824373 C12.7310769,12.7326534 12.8818462,13.7988591 13.1290256,14.6991184 C13.8264615,13.8268626 14.4705641,12.5936733 14.8264615,11.2505445 Z M11.7310769,12.026344 C10.2244103,12.8436301 9.42953846,14.1452723 9.42953846,15.2944512 C9.42953846,16.0567675 9.82748718,16.4311841 10.3895385,16.4311841 C10.8962051,16.4311841 11.5803077,16.1812273 12.3208205,15.5164045 C12.0049231,14.5466551 11.7997949,13.3010199 11.7310769,12.026344 Z M10.2521026,17.5108729 C9.18338462,17.5108729 8.38953846,16.7215903 8.38953846,15.3639412 C8.38953846,13.521936 9.75979487,11.8738807 11.6767179,11.015108 C11.662359,10.8211582 11.662359,10.6272083 11.662359,10.4197753 C11.662359,9.86592913 11.6767179,9.31104581 11.6900513,8.7706828 C10.9228718,8.78520311 10.073641,8.79868626 9.2654359,8.79868626 C8.90953846,8.78520311 8.74441026,8.59125324 8.74441026,8.25832325 C8.74441026,7.96791703 8.92287179,7.75944685 9.22441026,7.75944685 L9.93620513,7.75944685 C10.5259487,7.75944685 11.1290256,7.75944685 11.7444103,7.7459637 C11.7587692,7.26160761 11.7854359,6.7627312 11.8274872,6.33334486 C11.8551795,6.06990493 12.0459487,5.89047537 12.3474872,5.89047537 L12.4162051,5.89047537 C12.7454359,5.91744166 12.8818462,6.06990493 12.8818462,6.33334486 L12.8818462,6.40283492 C12.8397949,6.8042178 12.8131282,7.23360415 12.7864615,7.7044771 C14.5392821,7.63498704 16.2110769,7.51052723 17.7310769,7.27509075 L17.8264615,7.27509075 C18.1003077,7.27509075 18.2787692,7.44103717 18.3197949,7.73248055 L18.3197949,7.82893691 C18.3197949,8.10585998 18.1556923,8.28632671 17.8397949,8.32781331 C16.3197949,8.53524633 14.5803077,8.65970614 12.7044103,8.7291962 C12.6900513,9.24155575 12.6756923,9.75495246 12.6756923,10.2807952 L12.6756923,10.6552118 C13.2377436,10.5027485 14.0192821,10.3637684 15.0182564,10.3637684 C15.073641,10.1283319 15.1146667,9.92089888 15.142359,9.75495246 C15.1833846,9.53299914 15.3474872,9.40853933 15.593641,9.40853933 C15.6213333,9.40853933 15.662359,9.40853933 15.7033846,9.42202247 C15.9772308,9.45002593 16.1413333,9.61597234 16.1413333,9.85140882 L16.1413333,9.93438202 C16.1146667,10.1013656 16.073641,10.2807952 16.0326154,10.4612619 C18.2654359,10.807675 19.4018462,12.1642869 19.4018462,14.0208124 C19.4018462,16.2642005 17.4428718,18.0097494 14.4982564,18.120726 L14.4705641,18.120726 C14.142359,18.120726 13.9372308,17.8852895 13.9228718,17.5948833 L13.9228718,17.5668799 C13.9228718,17.2484702 14.128,17.0680035 14.4018462,17.0545203 C16.8408205,16.9300605 18.2510769,15.6408643 18.2510769,13.9658427 C18.2510769,12.5801901 17.4018462,11.5824373 15.7987692,11.3750043 C15.3474872,13.0925497 14.4438974,14.7820916 13.4982564,15.7798444 C13.5659487,15.9457908 13.6356923,16.1262576 13.7310769,16.3336906 C13.7721026,16.4166638 13.7997949,16.5141573 13.7997949,16.6106137 C13.7997949,16.8045635 13.7033846,16.9715471 13.4982564,17.0825238 C13.4018462,17.1240104 13.3064615,17.1509767 13.2244103,17.1509767 C13.0592821,17.1509767 12.9238974,17.0680035 12.8397949,16.9155402 C12.7864615,16.8045635 12.7310769,16.6666206 12.6756923,16.5421608 C11.7444103,17.2899568 10.9782564,17.5108729 10.2521026,17.5108729 Z" id="Stroke-17" stroke="#488BF8" stroke-width="0.5"></path>
                </g>
            </g>
        </g>
    </g>
</svg>