<?xml version="1.0" encoding="UTF-8"?>
<svg width="201px" height="28px" viewBox="0 0 201 28" version="1.1" xmlns="http://www.w3.org/2000/svg" xmlns:xlink="http://www.w3.org/1999/xlink">
    <!-- Generator: Sketch 45.2 (43514) - http://www.bohemiancoding.com/sketch -->
    <title>Agoda logo</title>
    <desc>Created with Sketch.</desc>
    <defs>
        <polygon id="path-1" points="0.151729026 0.06 8.83029364 0.06 8.83029364 12.38032 0.151729026 12.38032 0.151729026 0.06"></polygon>
        <polygon id="path-3" points="0 27.94008 200.893706 27.94008 200.893706 0.40008 0 0.40008"></polygon>
    </defs>
    <g id="Landing" stroke="none" stroke-width="1" fill="none" fill-rule="evenodd">
        <g id="Landing-page-Final---Install" transform="translate(-129.000000, -23.000000)">
            <g id="Masthead">
                <g id="Header---Not-Signed-In-Copy">
                    <g id="Group" transform="translate(129.000000, 1.000000)">
                        <g id="Agoda-logo" transform="translate(0.000000, 22.000000)">
                            <g id="Agoda-Partners">
                                <path d="M16.2205002,8.13676 C16.2205002,9.03676 16.4175042,9.71556 16.8095141,10.17636 C17.2011245,10.63676 17.7090191,10.86716 18.3319992,10.86716 C18.6996334,10.86716 19.0476871,10.76876 19.3749614,10.57076 C19.7026354,10.37436 19.9691702,10.07516 20.1741662,9.67756 C20.380361,9.27796 20.4838581,8.79516 20.4838581,8.22756 C20.4838581,7.32156 20.2844565,6.61716 19.8868521,6.11356 C19.4896473,5.60916 18.9645698,5.35636 18.3168143,5.35636 C17.6822457,5.35636 17.1751503,5.59796 16.7927308,6.07996 C16.4119097,6.56356 16.2205002,7.24876 16.2205002,8.13676 Z M22.6421105,5.32596 L22.6421105,11.76956 C22.6421105,12.50596 22.5649873,13.13996 22.4075439,13.67116 C22.2501006,14.20236 21.9983511,14.64116 21.6522954,14.98836 C21.3066394,15.33436 20.8530907,15.59116 20.2924485,15.76036 C19.7326056,15.92876 19.0348998,16.01196 18.2017288,16.01196 C17.4388879,16.01196 16.7567666,15.90556 16.155365,15.69156 C15.5547626,15.47676 15.0920231,15.20036 14.7679455,14.86116 C14.4422696,14.52276 14.280031,14.17516 14.280031,13.81756 C14.280031,13.54596 14.3723392,13.32636 14.5565559,13.15636 C14.740373,12.98436 14.9625519,12.89916 15.222693,12.89916 C15.5475698,12.89916 15.8312875,13.04356 16.0746453,13.32996 C16.1937268,13.47556 16.3164048,13.62356 16.4442775,13.77276 C16.5709515,13.92236 16.7124107,14.04956 16.8662577,14.15556 C17.0205042,14.25996 17.2059197,14.33836 17.4229038,14.38996 C17.6394883,14.44156 17.8876414,14.46836 18.1697606,14.46836 C18.7431901,14.46836 19.1883471,14.38716 19.5052318,14.22756 C19.8217169,14.06796 20.0434962,13.84436 20.1701702,13.55716 C20.2976433,13.26996 20.3727686,12.96316 20.3939475,12.63556 C20.4159256,12.30756 20.4315101,11.78076 20.4422994,11.05476 C20.101039,11.53196 19.7086294,11.89476 19.2614744,12.14356 C18.8151185,12.39276 18.2828481,12.51756 17.6662616,12.51756 C16.9242,12.51756 16.2760449,12.32836 15.7217964,11.94836 C15.1663491,11.56996 14.740373,11.03916 14.4422696,10.35556 C14.1449654,9.67276 13.9959137,8.88396 13.9959137,7.99156 C13.9959137,7.32436 14.0866235,6.72236 14.2680429,6.18636 C14.4494624,5.64996 14.7080052,5.19756 15.0440708,4.82996 C15.3793372,4.46076 15.7661523,4.18316 16.2053153,3.99556 C16.6436791,3.80916 17.1248004,3.71556 17.6498779,3.71556 C18.2780529,3.71556 18.8211125,3.83796 19.2822537,4.07676 C19.7417964,4.31756 20.1701702,4.69716 20.5661761,5.21036 L20.5661761,4.91116 C20.5661761,4.52516 20.6592835,4.22756 20.8482954,4.01556 C21.037707,3.80516 21.2810648,3.70036 21.5795678,3.70036 C22.0071423,3.70036 22.2912596,3.83876 22.4323193,4.11756 C22.5725797,4.39676 22.6421105,4.79916 22.6421105,5.32596 Z" id="Fill-1" fill="#FFFFFF"></path>
                                <path d="M34.572,8.2104 C34.572,7.3052 34.3737972,6.6 33.974994,6.0972 C33.5785885,5.5936 33.0423221,5.3412 32.3725885,5.3412 C31.9390199,5.3412 31.5573996,5.4528 31.2265288,5.6776 C30.8968569,5.9032 30.6423101,6.2348 30.4644871,6.6736 C30.2854652,7.1132 30.1955547,7.6256 30.1955547,8.2104 C30.1955547,8.7904 30.284666,9.2968 30.4600915,9.73 C30.6359165,10.1636 30.8868668,10.4964 31.2145408,10.7252 C31.5426143,10.956 31.9274314,11.0708 32.3725885,11.0708 C33.0423221,11.0708 33.5785885,10.8184 33.974994,10.3112 C34.3737972,9.8044 34.572,9.104 34.572,8.2104 M36.7973857,8.2104 C36.7973857,8.8708 36.6938887,9.4804 36.4876938,10.0388 C36.2818986,10.5976 35.9853936,11.0768 35.5961809,11.4772 C35.2049702,11.8784 34.739833,12.1852 34.1983718,12.3992 C33.6565109,12.614 33.0483161,12.7204 32.3725885,12.7204 C31.7012565,12.7204 31.0974573,12.6124 30.5611909,12.3952 C30.0257237,12.1796 29.5613857,11.8688 29.1685765,11.4644 C28.7765666,11.0608 28.4788628,10.5844 28.2754652,10.0352 C28.0732664,9.4852 27.9709682,8.8756 27.9709682,8.2104 C27.9709682,7.5384 28.073666,6.9228 28.2794612,6.366 C28.4856561,5.8064 28.780163,5.3296 29.1649801,4.9352 C29.5493976,4.5396 30.0145348,4.2352 30.5611909,4.0204 C31.1082465,3.8064 31.7112465,3.7004 32.3725885,3.7004 C33.0423221,3.7004 33.6517157,3.8072 34.1983718,4.024 C34.745827,4.2412 35.2137614,4.5492 35.6029742,4.9504 C35.9929861,5.352 36.2894911,5.8296 36.4928887,6.3812 C36.6954871,6.9336 36.7973857,7.5432 36.7973857,8.2104" id="Fill-3" fill="#FFFFFF"></path>
                                <g id="Group-7" transform="translate(41.958250, 0.340080)">
                                    <mask id="mask-2" fill="white">
                                        <use xlink:href="#path-1"></use>
                                    </mask>
                                    <g id="Clip-6"></g>
                                    <path d="M2.3755163,7.85312 C2.3755163,8.45512 2.46942286,8.96752 2.65523797,9.38992 C2.84185229,9.81312 3.09839702,10.13032 3.42327376,10.34472 C3.74775089,10.55952 4.10219821,10.66592 4.4862161,10.66592 C4.87582843,10.66592 5.23147455,10.56352 5.55395368,10.36072 C5.8764328,10.15752 6.13377674,9.84552 6.32598549,9.42512 C6.51819423,9.00632 6.61449841,8.48272 6.61449841,7.85312 C6.61449841,7.26232 6.51819423,6.75592 6.32598549,6.32952 C6.13377674,5.90432 5.87363559,5.57952 5.54636123,5.35512 C5.21828767,5.12992 4.86024394,5.01632 4.47103121,5.01632 C4.06423598,5.01632 3.70179662,5.13192 3.38291392,5.36312 C3.06323201,5.59272 2.81467932,5.92352 2.64005308,6.35352 C2.46342883,6.78552 2.3755163,7.28552 2.3755163,7.85312 M6.73557793,11.11192 L6.73557793,10.89312 C6.43827376,11.23432 6.1441664,11.51152 5.85485427,11.72552 C5.56554215,11.93952 5.25105507,12.10312 4.91339105,12.21392 C4.57492783,12.32512 4.20609483,12.38032 3.80449443,12.38032 C3.27422207,12.38032 2.78311074,12.26712 2.33116044,12.04352 C1.87921014,11.81832 1.48839901,11.49712 1.15792783,11.08032 C0.827057058,10.66272 0.576905964,10.17272 0.40707495,9.60872 C0.236045129,9.04632 0.151729026,8.43592 0.151729026,7.78152 C0.151729026,6.39352 0.488993439,5.31272 1.16591988,4.53752 C1.84284632,3.76352 2.73276083,3.37552 3.83726183,3.37552 C4.47542684,3.37552 5.01369125,3.48432 5.45245467,3.70512 C5.89121809,3.92392 6.31759384,4.26152 6.73557793,4.71632 L6.73557793,1.44072 C6.73557793,0.98632 6.82588807,0.64192 7.00770716,0.40872 C7.18872704,0.17632 7.44726978,0.05992 7.78333539,0.05992 C8.11860179,0.05992 8.37634533,0.16712 8.55896362,0.38032 C8.7399835,0.59512 8.83029364,0.90952 8.83029364,1.32752 L8.83029364,11.11192 C8.83029364,11.53552 8.73319026,11.85192 8.53738509,12.06352 C8.34277873,12.27512 8.09062962,12.38032 7.78333539,12.38032 C7.47963757,12.38032 7.22988608,12.27032 7.0320829,12.05152 C6.83427972,11.83192 6.73557793,11.51912 6.73557793,11.11192" id="Fill-5" fill="#FFFFFF" mask="url(#mask-2)"></path>
                                </g>
                                <path d="M62.1950744,8.25904 C61.8693984,8.37824 61.397468,8.50384 60.7780843,8.63624 C60.1579014,8.76944 59.7299272,8.86704 59.4905654,8.92984 C59.2520028,8.99144 59.0258278,9.11344 58.8088437,9.29504 C58.5922592,9.47584 58.4851658,9.73024 58.4851658,10.05464 C58.4851658,10.39144 58.6122394,10.67544 58.8655873,10.91224 C59.1197344,11.14744 59.4534024,11.26584 59.8641936,11.26584 C60.3033567,11.26584 60.7085535,11.16904 61.0785853,10.97704 C61.4490167,10.78504 61.7215455,10.53624 61.894973,10.23384 C62.0943746,9.89824 62.1950744,9.34544 62.1950744,8.57544 L62.1950744,8.25904 Z M62.3409292,11.46824 C61.8050624,11.88704 61.2875773,12.19864 60.7856767,12.40864 C60.2853746,12.61704 59.7235336,12.72024 59.1005535,12.72024 C58.5331181,12.72024 58.0336151,12.60784 57.6032433,12.38304 C57.172472,12.15824 56.8412016,11.85424 56.6098318,11.46824 C56.3760644,11.08504 56.2593805,10.66664 56.2593805,10.21664 C56.2593805,9.61024 56.4511897,9.09344 56.8364064,8.66544 C57.2212235,8.23784 57.748299,7.94944 58.4184322,7.80304 C58.5610903,7.77144 58.9095435,7.69864 59.4665893,7.58344 C60.023635,7.47064 60.501959,7.36664 60.899963,7.27064 C61.2983666,7.17624 61.7299372,7.06144 62.1950744,6.92504 C62.1671022,6.34104 62.0496191,5.91064 61.8414262,5.63744 C61.6332334,5.36424 61.2008636,5.22664 60.5463149,5.22664 C59.984474,5.22664 59.559297,5.30584 59.2759789,5.46264 C58.991462,5.62024 58.7485038,5.85624 58.5451062,6.17104 C58.3425078,6.48424 58.1986509,6.69184 58.1147344,6.79224 C58.0312175,6.89224 57.8505972,6.94224 57.5752712,6.94224 C57.3259193,6.94224 57.1105336,6.86184 56.9291141,6.70224 C56.7488934,6.54264 56.6569849,6.33784 56.6569849,6.08864 C56.6569849,5.69904 56.7960465,5.31904 57.070973,4.95064 C57.3474978,4.58344 57.7786688,4.27944 58.3628875,4.04144 C58.9475058,3.80264 59.6759809,3.68304 60.5463149,3.68304 C61.5209451,3.68304 62.2861837,3.79784 62.8444282,4.02904 C63.4018736,4.25864 63.7958815,4.62344 64.0260525,5.12064 C64.2554243,5.62024 64.3709093,6.28104 64.3709093,7.10464 C64.3709093,7.62544 64.3685117,8.06624 64.3669133,8.42904 C64.3637165,8.79344 64.3593209,9.19544 64.354126,9.64104 C64.354126,10.05664 64.4232573,10.49264 64.5611201,10.94464 C64.7001817,11.39664 64.7689133,11.68824 64.7689133,11.81784 C64.7689133,12.04584 64.6610207,12.25304 64.4468338,12.44024 C64.2346449,12.62744 63.9920863,12.72024 63.7215555,12.72024 C63.4933825,12.72024 63.268806,12.61424 63.0470266,12.39944 C62.8260465,12.18504 62.5910803,11.87584 62.3409292,11.46824 L62.3409292,11.46824 Z" id="Fill-8" fill="#FFFFFF"></path>
                                <path d="M5.93465487,8.25904 C5.61017773,8.37824 5.13824732,8.50384 4.51886362,8.63624 C3.89788151,8.76944 3.46950775,8.86704 3.23094513,8.92984 C2.99318171,8.99144 2.76580795,9.11344 2.54922346,9.29504 C2.33183976,9.47584 2.22474632,9.73024 2.22474632,10.05464 C2.22474632,10.39144 2.35181988,10.67544 2.6055674,10.91224 C2.86011412,11.14744 3.19378211,11.26584 3.60417376,11.26584 C4.04333678,11.26584 4.44773439,11.16904 4.81816581,10.97704 C5.18899682,10.78504 5.46032684,10.53624 5.63455348,10.23384 C5.83355547,9.89824 5.93465487,9.34544 5.93465487,8.57544 L5.93465487,8.25904 Z M6.08050974,11.46824 C5.54584175,11.88704 5.02715785,12.19864 4.52645606,12.40864 C4.02535467,12.61704 3.46391332,12.72024 2.8409332,12.72024 C2.27269861,12.72024 1.77399483,12.60784 1.34322346,12.38304 C0.913251292,12.15824 0.581581312,11.85424 0.348613121,11.46824 C0.116444135,11.08504 0.000159840954,10.66664 0.000159840954,10.21664 C0.000159840954,9.61024 0.191968986,9.09344 0.575986879,8.66544 C0.960404374,8.23784 1.48867873,7.94944 2.15881193,7.80304 C2.29987157,7.77144 2.64952366,7.69864 3.20656938,7.58344 C3.76361511,7.47064 4.24233877,7.36664 4.64034274,7.27064 C5.03794712,7.17624 5.46911809,7.06144 5.93465487,6.92504 C5.90828111,6.34104 5.7895992,5.91064 5.58140636,5.63744 C5.37321352,5.36424 4.94124334,5.22664 4.28629503,5.22664 C3.72365487,5.22664 3.30007634,5.30584 3.01715785,5.46264 C2.73144215,5.62024 2.4884839,5.85624 2.28508628,6.17104 C2.08288748,6.48424 1.93863101,6.69184 1.85551372,6.79224 C1.77119761,6.89224 1.59137654,6.94224 1.31565089,6.94224 C1.06629901,6.94224 0.850513718,6.86184 0.669493837,6.70224 C0.488074354,6.54264 0.398563419,6.33784 0.398563419,6.08864 C0.398563419,5.69904 0.536825845,5.31904 0.811752286,4.95064 C1.08747793,4.58344 1.5174501,4.27944 2.10246799,4.04144 C2.68788549,3.80264 3.41516183,3.68304 4.28629503,3.68304 C5.26132485,3.68304 6.02656342,3.79784 6.58480795,4.02904 C7.14185368,4.25864 7.53586163,4.62344 7.7660326,5.12064 C7.99580398,5.62024 8.11128907,6.28104 8.11128907,7.10464 C8.11128907,7.62544 8.10889145,8.06624 8.10609423,8.42904 C8.10409622,8.79344 8.1001002,9.19544 8.09410616,9.64104 C8.09410616,10.05664 8.16323738,10.49264 8.3011002,10.94464 C8.44016183,11.39664 8.50889344,11.68824 8.50889344,11.81784 C8.50889344,12.04584 8.4014004,12.25304 8.18801272,12.44024 C7.97422545,12.62744 7.7320664,12.72024 7.46193519,12.72024 C7.23416183,12.72024 7.00878608,12.61424 6.78820557,12.39944 C6.56602664,12.18504 6.32986163,11.87584 6.08050974,11.46824 L6.08050974,11.46824 Z" id="Fill-10" fill="#FFFFFF"></path>
                                <g id="Group-14" transform="translate(0.000000, 17.940080)" fill="#FFFFFF">
                                    <path d="M8.49910318,4.27208 C8.49910318,6.62128 6.59659622,8.52608 4.24933181,8.52608 C1.902467,8.52608 -3.99602386e-05,6.62128 -3.99602386e-05,4.27208 C-3.99602386e-05,1.92248 1.902467,0.01808 4.24933181,0.01808 C6.59659622,0.01808 8.49910318,1.92248 8.49910318,4.27208" id="Fill-12"></path>
                                </g>
                                <path d="M22.5663459,22.21216 C22.5663459,24.56136 20.6634394,26.46616 18.3165746,26.46616 C15.9697097,26.46616 14.0668032,24.56136 14.0668032,22.21216 C14.0668032,19.86256 15.9697097,17.95816 18.3165746,17.95816 C20.6634394,17.95816 22.5663459,19.86256 22.5663459,22.21216" id="Fill-15" fill="#FFFFFF"></path>
                                <path d="M36.6343879,22.21216 C36.6343879,24.56136 34.7314813,26.46616 32.3846165,26.46616 C30.0373521,26.46616 28.1348451,24.56136 28.1348451,22.21216 C28.1348451,19.86256 30.0373521,17.95816 32.3846165,17.95816 C34.7314813,17.95816 36.6343879,19.86256 36.6343879,22.21216" id="Fill-17" fill="#FFFFFF"></path>
                                <path d="M50.7014308,22.21216 C50.7014308,24.56136 48.7985243,26.46616 46.4516594,26.46616 C44.104395,26.46616 42.2018881,24.56136 42.2018881,22.21216 C42.2018881,19.86256 44.104395,17.95816 46.4516594,17.95816 C48.7985243,17.95816 50.7014308,19.86256 50.7014308,22.21216" id="Fill-19" fill="#FFFFFF"></path>
                                <path d="M64.7685137,22.21216 C64.7685137,24.56136 62.8660068,26.46616 60.5195416,26.46616 C58.1722771,26.46616 56.2697702,24.56136 56.2697702,22.21216 C56.2697702,19.86256 58.1722771,17.95816 60.5195416,17.95816 C62.8660068,17.95816 64.7685137,19.86256 64.7685137,22.21216" id="Fill-21" fill="#FFFFFF"></path>
                                <mask id="mask-4" fill="white">
                                    <use xlink:href="#path-3"></use>
                                </mask>
                                <g id="Clip-24"></g>
                                <polygon id="Fill-23" fill="#FFFFFF" mask="url(#mask-4)" points="77.7054811 27.94008 78.5046859 27.94008 78.5046859 0.40008 77.7054811 0.40008"></polygon>
                                <path d="M93.9422052,12.59224 L96.5504099,12.59224 C99.1318414,12.59224 100.897684,11.15064 100.897684,8.73024 C100.897684,6.52744 99.2405332,5.11304 96.6866744,5.11304 L93.9422052,5.11304 L93.9422052,12.59224 Z M93.9693781,14.95864 L93.9693781,21.81184 L91.3340004,21.81184 L91.3340004,2.77424 L96.7681932,2.77424 C100.653527,2.77424 103.560635,4.78664 103.560635,8.70304 C103.560635,12.67384 100.544436,14.95864 96.5504099,14.95864 L93.9693781,14.95864 Z" id="Fill-25" fill="#FFFFFF" mask="url(#mask-4)"></path>
                                <path d="M115.381433,18.03148 L115.381433,15.31188 C109.159623,15.69268 108.344435,17.16108 108.344435,18.27628 C108.344435,19.30988 109.13245,19.93548 110.382007,19.93548 C111.550445,19.93548 113.099303,19.41868 115.381433,18.03148 L115.381433,18.03148 Z M115.381433,19.60908 C113.479725,21.15908 111.686309,22.02948 109.893293,22.02948 C107.610765,22.02948 105.871695,20.69708 105.871695,18.38508 C105.871695,16.04628 107.4749,13.84308 115.381433,13.73468 L115.381433,13.67988 C115.381433,11.39548 114.267741,10.22628 112.256942,10.22628 C110.844347,10.22628 109.268315,10.76988 107.420554,12.18428 L107.339035,12.15708 L107.882494,9.41028 C109.105278,8.59428 110.626963,7.96868 112.637363,7.96868 C115.897719,7.96868 117.826999,9.84548 117.826999,13.54388 L117.826999,21.48588 L115.381433,22.02948 L115.381433,19.60908 Z" id="Fill-26" fill="#FFFFFF" mask="url(#mask-4)"></path>
                                <path d="M122.582867,21.81196 L122.582867,8.53996 L125.028034,7.99596 L125.028034,11.44996 C126.875795,9.13836 128.01706,7.99596 129.75573,7.99596 C130.082205,7.99596 130.272016,8.02316 130.625265,8.10476 L130.815875,10.68836 C130.570919,10.63396 130.353535,10.60676 130.082205,10.60676 C128.261617,10.60676 126.767104,11.55876 125.028034,13.10916 L125.028034,21.81196 L122.582867,21.81196 Z" id="Fill-27" fill="#FFFFFF" mask="url(#mask-4)"></path>
                                <path d="M139.347825,22.11116 C136.984177,22.11116 135.190762,20.64236 135.190762,17.56956 L135.190762,10.30756 L132.88106,10.30756 L132.88106,8.21356 L135.190762,8.21356 L135.190762,5.16756 L137.608756,4.26996 L137.608756,8.21356 L142.934257,8.21356 L142.934257,10.30756 L137.608756,10.30756 L137.608756,17.46036 C137.608756,19.17396 138.451118,19.90796 139.864112,19.90796 C140.978203,19.90796 142.010376,19.33676 142.907084,18.52116 L142.988603,18.57556 L142.445144,21.15916 C141.711474,21.70316 140.597782,22.11116 139.347825,22.11116" id="Fill-28" fill="#FFFFFF" mask="url(#mask-4)"></path>
                                <path d="M149.266077,12.59224 L149.266077,21.81184 L146.82091,21.81184 L146.82091,8.53984 L149.266077,7.99584 L149.266077,10.76984 C150.760589,8.83904 152.173184,7.94144 154.102864,7.94144 C156.846933,7.94144 158.884506,9.87264 158.884506,13.24504 L158.884506,21.81184 L156.438939,21.81184 L156.438939,13.48984 C156.438939,11.36824 155.298075,10.14464 153.42314,10.14464 C152.037719,10.14464 150.923627,10.76984 149.266077,12.59224" id="Fill-29" fill="#FFFFFF" mask="url(#mask-4)"></path>
                                <path d="M164.971929,14.14244 L172.851289,14.14244 C172.633905,11.69484 171.329603,9.98124 169.047074,9.98124 C166.737772,9.98124 165.189313,11.83084 164.971929,14.14244 M169.536587,22.11124 C165.16214,22.11124 162.499589,19.25524 162.499589,15.01284 C162.499589,11.25964 165.16214,7.83284 169.128593,7.83284 C173.340002,7.83284 175.323629,11.25964 175.323629,14.87684 C175.323629,15.14884 175.296456,15.69284 175.24211,15.96484 L165.026275,15.96484 C165.406696,18.52124 167.254058,19.88124 169.808317,19.88124 C171.546986,19.88124 173.367575,19.14684 174.807342,18.22204 L174.888861,18.27644 L174.019726,20.91484 C172.688251,21.64884 171.411122,22.11124 169.536587,22.11124" id="Fill-30" fill="#FFFFFF" mask="url(#mask-4)"></path>
                                <path d="M179.237414,21.81196 L179.237414,8.53996 L181.682581,7.99596 L181.682581,11.44996 C183.530343,9.13836 184.671607,7.99596 186.410277,7.99596 C186.736752,7.99596 186.926563,8.02316 187.279812,8.10476 L187.470422,10.68836 C187.225466,10.63396 187.008082,10.60676 186.736752,10.60676 C184.916164,10.60676 183.421651,11.55876 181.682581,13.10916 L181.682581,21.81196 L179.237414,21.81196 Z" id="Fill-31" fill="#FFFFFF" mask="url(#mask-4)"></path>
                                <path d="M195.43222,22.11116 C193.394248,22.11116 191.709924,21.51276 190.106719,20.45236 L189.590832,17.51476 L189.671952,17.46036 C191.275156,18.76596 193.448594,19.90796 195.70395,19.90796 C197.334327,19.90796 198.529538,19.20116 198.529538,18.19476 C198.529538,17.07956 197.741522,16.61756 194.834415,15.93716 C192.008826,15.25756 190.133892,14.35996 190.133892,11.96676 C190.133892,9.62796 192.253383,7.91436 195.43222,7.91436 C197.252809,7.91436 198.828441,8.53996 199.888186,9.16556 L199.888186,11.72196 L199.806667,11.77636 C198.556711,10.96036 196.845214,10.11716 195.16049,10.11716 C193.503339,10.11716 192.49794,10.76996 192.49794,11.69476 C192.49794,12.75556 193.367475,13.21796 196.111544,13.87036 C199.154516,14.57756 200.893586,15.50236 200.893586,18.05876 C200.893586,20.45236 198.584284,22.11116 195.43222,22.11116" id="Fill-32" fill="#FFFFFF" mask="url(#mask-4)"></path>
                            </g>
                        </g>
                    </g>
                </g>
            </g>
        </g>
    </g>
</svg>