<?xml version="1.0" encoding="UTF-8"?>
<svg width="50px" height="40px" viewBox="0 0 50 40" version="1.1" xmlns="http://www.w3.org/2000/svg" xmlns:xlink="http://www.w3.org/1999/xlink">
    <!-- Generator: Sketch 45.2 (43514) - http://www.bohemiancoding.com/sketch -->
    <title>ICON</title>
    <desc>Created with Sketch.</desc>
    <defs>
        <polygon id="path-1" points="0 13.5340642 0 0.124567039 13.9569788 0.124567039 13.9569788 13.5340642 4.37755097e-16 13.5340642"></polygon>
        <polygon id="path-3" points="15 0.124567039 15 13.5340642 1.04302116 13.5340642 1.04302116 0.124567039"></polygon>
    </defs>
    <g id="Landing" stroke="none" stroke-width="1" fill="none" fill-rule="evenodd">
        <g id="Landing-page-Final" transform="translate(-246.000000, -2655.000000)">
            <g id="Support" transform="translate(0.000000, 2581.000000)">
                <g id="ICON" transform="translate(246.000000, 74.000000)">
                    <path d="M8.273875,7.02452514 C6.855125,7.02452514 5.436375,7.56879888 4.355125,8.65608939 C2.191375,10.8331844 2.191375,14.3602793 4.355125,16.5373743 C5.436375,17.6246648 6.855125,18.1689385 8.273875,18.1689385 C9.692625,18.1689385 11.110125,17.6246648 12.192625,16.5373743 C14.355125,14.3602793 14.355125,10.8331844 12.192625,8.65608939 C11.110125,7.56879888 9.692625,7.02452514 8.273875,7.02452514 M8.273875,9.53849162 C9.085125,9.53849162 9.850125,9.85650838 10.425125,10.4334637 C10.998875,11.011676 11.315125,11.7796927 11.315125,12.5967318 C11.315125,13.4137709 10.998875,14.1817877 10.425125,14.758743 C9.850125,15.3369553 9.085125,15.6549721 8.273875,15.6549721 C7.461375,15.6549721 6.697625,15.3369553 6.122625,14.758743 C5.548875,14.1817877 5.231375,13.4137709 5.231375,12.5967318 C5.231375,11.7796927 5.548875,11.011676 6.122625,10.4334637 C6.697625,9.85650838 7.461375,9.53849162 8.273875,9.53849162" id="Fill-1" fill="#488BF8"></path>
                    <path d="M41.726,7.02452514 C40.30725,7.02452514 38.88975,7.56879888 37.80725,8.65608939 C35.64475,10.8331844 35.64475,14.3602793 37.80725,16.5373743 C38.88975,17.6246648 40.30725,18.1689385 41.726,18.1689385 C43.14475,18.1689385 44.5635,17.6246648 45.64475,16.5373743 C47.8085,14.3602793 47.8085,10.8331844 45.64475,8.65608939 C44.5635,7.56879888 43.14475,7.02452514 41.726,7.02452514 M41.726,9.53849162 C42.5385,9.53849162 43.30225,9.85650838 43.87725,10.4334637 C45.06225,11.6263408 45.06225,13.5671229 43.87725,14.758743 C43.30225,15.3369553 42.5385,15.6549721 41.726,15.6549721 C40.91475,15.6549721 40.14975,15.3369553 39.57475,14.758743 C39.001,14.1817877 38.68475,13.4137709 38.68475,12.5967318 C38.68475,11.7796927 39.001,11.011676 39.57475,10.4334637 C40.14975,9.85650838 40.91475,9.53849162 41.726,9.53849162" id="Fill-3" fill="#488BF8"></path>
                    <g id="Group-7" transform="translate(0.000000, 17.818743)">
                        <mask id="mask-2" fill="white">
                            <use xlink:href="#path-1"></use>
                        </mask>
                        <g id="Clip-6"></g>
                        <path d="M3.756125,0.124567039 C3.606125,0.124567039 3.454875,0.183645251 3.338625,0.29551676 C1.327375,2.2576676 0.049875,5.4076676 -0.000125,8.97624302 C-0.002625,9.11828212 0.047375,9.2552933 0.138625,9.36465084 C0.817375,10.1728911 3.904875,13.5340642 8.273625,13.5340642 C8.742375,13.5340642 9.197375,13.4950978 9.634875,13.4247067 C9.902375,13.3807123 10.102375,13.1594832 10.124875,12.8892318 C10.466125,8.58657821 11.802375,4.69872905 13.852375,1.66814246 C13.997375,1.45445531 13.993625,1.16912011 13.828625,0.97051676 C13.629875,0.734203911 13.423625,0.509203911 13.208625,0.298030726 C13.093625,0.184902235 12.942375,0.124567039 12.791125,0.124567039 C12.671125,0.124567039 12.552375,0.162276536 12.452375,0.240209497 C11.223625,1.19300279 9.748625,1.66939944 8.273625,1.66939944 C6.799875,1.66939944 5.323625,1.19300279 4.094875,0.240209497 C3.993625,0.162276536 3.876125,0.124567039 3.756125,0.124567039 M4.154875,3.22051676 C5.431125,3.8477514 6.846125,4.18336592 8.273625,4.18336592 C8.756125,4.18336592 9.236125,4.14565642 9.711125,4.07023743 C8.791125,6.21087989 8.152375,8.54635475 7.814875,11.0025 C5.367375,10.8152095 3.437375,9.18615922 2.532375,8.26856145 C2.672375,6.35543296 3.249875,4.57680168 4.154875,3.22051676" id="Fill-5" fill="#488BF8" mask="url(#mask-2)"></path>
                    </g>
                    <g id="Group-10" transform="translate(35.000000, 17.818743)">
                        <mask id="mask-4" fill="white">
                            <use xlink:href="#path-3"></use>
                        </mask>
                        <g id="Clip-9"></g>
                        <path d="M11.243875,0.124567039 C11.123875,0.124567039 11.006375,0.162276536 10.905125,0.240209497 C9.676375,1.19300279 8.200125,1.66939944 6.726375,1.66939944 C5.251375,1.66939944 3.776375,1.19300279 2.547625,0.240209497 C2.447625,0.162276536 2.328875,0.124567039 2.208875,0.124567039 C2.057625,0.124567039 1.906375,0.184902235 1.791375,0.298030726 C1.576375,0.509203911 1.370125,0.734203911 1.171375,0.97051676 C1.006375,1.16912011 1.002625,1.45445531 1.147625,1.66814246 C3.197625,4.69872905 4.535125,8.58657821 4.875125,12.8892318 C4.897625,13.1594832 5.097625,13.3807123 5.365125,13.4247067 C5.802625,13.4950978 6.257625,13.5340642 6.726375,13.5340642 C11.095125,13.5340642 14.182625,10.1728911 14.861375,9.36465084 C14.952625,9.2552933 15.002625,9.11828212 15.000125,8.97624302 C14.950125,5.4076676 13.672625,2.2576676 11.661375,0.29551676 C11.545125,0.183645251 11.393875,0.124567039 11.243875,0.124567039 M10.845125,3.22051676 C11.750125,4.57680168 12.327625,6.35543296 12.467625,8.26856145 C11.562625,9.18615922 9.632625,10.8152095 7.185125,11.0025 C6.847625,8.54635475 6.208875,6.21087989 5.288875,4.07023743 C5.763875,4.14565642 6.243875,4.18336592 6.726375,4.18336592 C8.153875,4.18336592 9.568875,3.8477514 10.845125,3.22051676" id="Fill-8" fill="#488BF8" mask="url(#mask-4)"></path>
                    </g>
                    <path d="M32.298625,17.6045531 C32.091125,17.6045531 31.882375,17.6724302 31.706125,17.8069274 C29.732375,19.3266201 27.367375,20.087095 24.999875,20.087095 C22.633625,20.087095 20.267375,19.3266201 18.293625,17.8069274 C18.117375,17.6724302 17.908625,17.6045531 17.701125,17.6045531 C17.463625,17.6045531 17.226125,17.6937989 17.044875,17.8710335 C13.808625,21.0310894 11.753625,26.0992458 11.673625,31.8386313 C11.669875,32.0711732 11.751125,32.2974302 11.899875,32.4746648 C12.999875,33.7831844 17.969875,39.1869553 24.999875,39.1869553 C32.029875,39.1869553 37.001125,33.7831844 38.101125,32.4746648 C38.249875,32.2974302 38.329875,32.0711732 38.326125,31.8386313 C38.246125,26.0992458 36.191125,21.0310894 32.954875,17.8710335 C32.773625,17.6937989 32.536125,17.6045531 32.298625,17.6045531 M32.068625,20.5999441 C34.303625,23.2748045 35.642375,27.0746648 35.811125,31.2830447 C34.422375,32.8014804 30.353625,36.6729888 24.999875,36.6729888 C19.646125,36.6729888 15.577375,32.8002235 14.189875,31.2830447 C14.357375,27.0746648 15.696125,23.2760615 17.931125,20.5999441 C20.044875,21.8984078 22.508625,22.6010615 24.999875,22.6010615 C27.491125,22.6010615 29.954875,21.8984078 32.068625,20.5999441" id="Fill-11" fill="#488BF8"></path>
                    <path d="M25,-3.55271368e-15 C22.71625,-3.55271368e-15 20.43125,0.876117318 18.68875,2.62835196 C15.2025,6.13407821 15.2025,11.8168994 18.68875,15.3226257 C20.43125,17.0748603 22.71625,17.9509777 25,17.9509777 C27.28375,17.9509777 29.56875,17.0748603 31.31125,15.3226257 C34.7975,11.8168994 34.7975,6.13407821 31.31125,2.62835196 C29.56875,0.876117318 27.28375,-3.55271368e-15 25,-3.55271368e-15 M25,2.51396648 C26.71625,2.51396648 28.33,3.18645251 29.54375,4.40698324 C32.05,6.92597765 32.05,11.025 29.54375,13.5452514 C28.33,14.7657821 26.71625,15.4370112 25,15.4370112 C23.28375,15.4370112 21.67,14.7657821 20.45625,13.5452514 C17.95,11.025 17.95,6.92597765 20.45625,4.40698324 C21.67,3.18645251 23.28375,2.51396648 25,2.51396648" id="Fill-13" fill="#488BF8"></path>
                </g>
            </g>
        </g>
    </g>
</svg>